<?xml version="1.0" encoding="UTF-8"?>
<svg xmlns="http://www.w3.org/2000/svg" width="1600" height="520" viewBox="0 0 1600 520">
  <defs>
    <linearGradient id="bg" x1="0" y1="0" x2="1" y2="1">
      <stop offset="0%" stop-color="#020617"/>
      <stop offset="48%" stop-color="#0f1b3d"/>
      <stop offset="100%" stop-color="#24104f"/>
    </linearGradient>
    <linearGradient id="glass" x1="0" y1="0" x2="1" y2="1">
      <stop offset="0%" stop-color="#ffffff" stop-opacity=".13"/>
      <stop offset="100%" stop-color="#ffffff" stop-opacity=".035"/>
    </linearGradient>
    <linearGradient id="line" x1="0" y1="0" x2="1" y2="1">
      <stop offset="0%" stop-color="#38bdf8"/>
      <stop offset="100%" stop-color="#a78bfa"/>
    </linearGradient>
    <filter id="glow" x="-40%" y="-40%" width="180%" height="180%">
      <feGaussianBlur stdDeviation="12"/>
    </filter>
  </defs>

  <rect width="1600" height="520" rx="34" fill="url(#bg)"/>

  <circle cx="145" cy="80" r="125" fill="#38bdf8" opacity=".09" filter="url(#glow)"/>
  <circle cx="1450" cy="425" r="150" fill="#a855f7" opacity=".11" filter="url(#glow)"/>

  <rect x="62" y="54" width="1476" height="412" rx="30" fill="url(#glass)" stroke="#ffffff" stroke-opacity=".14"/>

  <!-- Left: identity -->
  <text x="120" y="150" fill="#94a3b8" font-family="Segoe UI,Arial,sans-serif" font-size="18" font-weight="600" letter-spacing="2">JAVA • SPRING • DISTRIBUTED SYSTEMS</text>
  <text x="120" y="218" fill="#ffffff" font-family="Segoe UI,Arial,sans-serif" font-size="54" font-weight="750">Rahul Moundekar</text>
  <text x="120" y="268" fill="#dbeafe" font-family="Segoe UI,Arial,sans-serif" font-size="28" font-weight="600">Senior Java Full Stack Developer</text>
  <text x="120" y="315" fill="#94a3b8" font-family="Segoe UI,Arial,sans-serif" font-size="19">I build secure, reliable and scalable applications</text>
  <text x="120" y="345" fill="#94a3b8" font-family="Segoe UI,Arial,sans-serif" font-size="19">with Spring Boot, PostgreSQL, Kafka, Redis, Docker &amp; AWS.</text>

  <g font-family="Segoe UI,Arial,sans-serif" font-size="15" font-weight="700">
    <rect x="120" y="382" width="126" height="38" rx="19" fill="#1d4ed8"/><text x="151" y="407" fill="#fff">Security</text>
    <rect x="258" y="382" width="140" height="38" rx="19" fill="#047857"/><text x="286" y="407" fill="#fff">Reliability</text>
    <rect x="410" y="382" width="176" height="38" rx="19" fill="#7c3aed"/><text x="438" y="407" fill="#fff">Event-Driven</text>
    <rect x="598" y="382" width="132" height="38" rx="19" fill="#0f766e"/><text x="630" y="407" fill="#fff">Observability</text>
  </g>

  <!-- Right: architecture -->
  <g transform="translate(930 95)">
    <circle cx="245" cy="145" r="96" fill="#38bdf8" opacity=".06"/>
    <circle cx="245" cy="145" r="66" fill="#a78bfa" opacity=".06"/>

    <g fill="none" stroke="url(#line)" stroke-width="3" opacity=".85">
      <path d="M82 92 L182 62 L245 145"/>
      <path d="M182 62 L320 72 L408 130"/>
      <path d="M245 145 L320 72"/>
      <path d="M245 145 L186 238 L84 205"/>
      <path d="M245 145 L366 220 L430 170"/>
      <path d="M408 130 L430 170 L366 220"/>
    </g>

    <g fill="#0b1224" stroke="#64748b" stroke-width="2">
      <rect x="30" y="64" width="104" height="56" rx="14"/>
      <rect x="150" y="34" width="110" height="56" rx="14"/>
      <rect x="288" y="44" width="112" height="56" rx="14"/>
      <rect x="190" y="117" width="112" height="56" rx="14"/>
      <rect x="40" y="177" width="112" height="56" rx="14"/>
      <rect x="350" y="142" width="112" height="56" rx="14"/>
      <rect x="310" y="206" width="112" height="56" rx="14"/>
    </g>

    <g font-family="Segoe UI,Arial,sans-serif" font-size="13" font-weight="700" text-anchor="middle">
      <text x="82" y="98" fill="#bfdbfe">API</text>
      <text x="205" y="69" fill="#c4b5fd">AUTH</text>
      <text x="344" y="79" fill="#bbf7d0">KAFKA</text>
      <text x="246" y="152" fill="#fff">SERVICES</text>
      <text x="96" y="212" fill="#bae6fd">POSTGRES</text>
      <text x="406" y="177" fill="#fbcfe8">REDIS</text>
      <text x="366" y="241" fill="#ddd6fe">AWS / DOCKER</text>
    </g>
  </g>

  <text x="1220" y="418" fill="#64748b" font-family="Segoe UI,Arial,sans-serif" font-size="14">rahulmoundekar • engineering profile</text>
</svg>